<svg width="161" height="48" viewBox="0 0 161 48" fill="none" xmlns="http://www.w3.org/2000/svg">
<path d="M44.2784 30V18.3637H51.5739V19.875H46.0341V23.4205H51.1932V24.9262H46.0341V28.4887H51.642V30H44.2784ZM61.2486 21.2728L58.0838 30H56.2656L53.0952 21.2728H54.919L57.1293 27.9887H57.2202L59.4247 21.2728H61.2486ZM66.3097 30.1762C65.4498 30.1762 64.7093 29.9925 64.0881 29.625C63.4706 29.2538 62.9934 28.733 62.6562 28.0625C62.3229 27.3883 62.1562 26.5985 62.1562 25.6932C62.1562 24.7993 62.3229 24.0114 62.6562 23.3296C62.9934 22.6478 63.4631 22.1156 64.0653 21.733C64.6714 21.3504 65.3797 21.1591 66.1903 21.1591C66.6828 21.1591 67.16 21.2406 67.6222 21.4034C68.0843 21.5663 68.4991 21.822 68.8665 22.1705C69.2339 22.519 69.5237 22.9716 69.7358 23.5284C69.9479 24.0815 70.054 24.7538 70.054 25.5455V26.1478H63.1165V24.875H68.3892C68.3892 24.4281 68.2983 24.0322 68.1165 23.6875C67.9347 23.339 67.679 23.0644 67.3494 22.8637C67.0237 22.6629 66.6411 22.5625 66.2017 22.5625C65.7244 22.5625 65.3078 22.68 64.9517 22.9148C64.5994 23.1459 64.3267 23.4489 64.1335 23.8239C63.9441 24.1951 63.8494 24.5985 63.8494 25.0341V26.0284C63.8494 26.6118 63.9517 27.108 64.1562 27.5171C64.3646 27.9262 64.6544 28.2387 65.0256 28.4546C65.3968 28.6667 65.8305 28.7728 66.3267 28.7728C66.6487 28.7728 66.9422 28.7273 67.2074 28.6364C67.4725 28.5417 67.7017 28.4015 67.8949 28.2159C68.0881 28.0303 68.2358 27.8012 68.3381 27.5284L69.946 27.8182C69.8172 28.2917 69.5862 28.7065 69.2528 29.0625C68.9233 29.4148 68.5085 29.6894 68.0085 29.8864C67.5123 30.0796 66.946 30.1762 66.3097 30.1762ZM73.6378 24.8182V30H71.9389V21.2728H73.5696V22.6932H73.6776C73.8783 22.2311 74.1927 21.8599 74.6207 21.5796C75.0526 21.2993 75.5961 21.1591 76.2514 21.1591C76.8461 21.1591 77.367 21.2841 77.8139 21.5341C78.2609 21.7803 78.6075 22.1478 78.8537 22.6364C79.0999 23.125 79.223 23.7292 79.223 24.4489V30H77.5241V24.6534C77.5241 24.0209 77.3594 23.5265 77.0298 23.1705C76.7003 22.8106 76.2476 22.6307 75.6719 22.6307C75.2779 22.6307 74.9276 22.7159 74.6207 22.8864C74.3177 23.0568 74.0772 23.3068 73.8991 23.6364C73.7249 23.9622 73.6378 24.3561 73.6378 24.8182ZM85.5753 21.2728V22.6364H80.8082V21.2728H85.5753ZM82.0866 19.1818H83.7855V27.4375C83.7855 27.7671 83.8348 28.0152 83.9332 28.1818C84.0317 28.3447 84.1586 28.4565 84.3139 28.5171C84.473 28.5739 84.6454 28.6023 84.831 28.6023C84.9673 28.6023 85.0866 28.5928 85.1889 28.5739C85.2912 28.555 85.3707 28.5398 85.4276 28.5284L85.7344 29.9318C85.6359 29.9697 85.4957 30.0076 85.3139 30.0455C85.1321 30.0872 84.9048 30.1099 84.6321 30.1137C84.1851 30.1212 83.7685 30.0417 83.3821 29.875C82.9957 29.7084 82.6832 29.4508 82.4446 29.1023C82.206 28.7538 82.0866 28.3163 82.0866 27.7898V19.1818ZM87.858 30V18.3637H91.6136C92.4394 18.3637 93.1288 18.5133 93.6818 18.8125C94.2386 19.108 94.6572 19.519 94.9375 20.0455C95.2216 20.5682 95.3636 21.1686 95.3636 21.8466C95.3636 22.5247 95.2216 23.1231 94.9375 23.6421C94.6572 24.161 94.2405 24.5663 93.6875 24.858C93.1345 25.1497 92.4489 25.2955 91.6307 25.2955H88.4318V24.3239H91.6023C92.2083 24.3239 92.7121 24.2235 93.1136 24.0228C93.5189 23.822 93.8201 23.536 94.017 23.1648C94.2178 22.7936 94.3182 22.3542 94.3182 21.8466C94.3182 21.339 94.2178 20.8959 94.017 20.5171C93.8163 20.1345 93.5133 19.839 93.108 19.6307C92.7064 19.4224 92.1989 19.3182 91.5852 19.3182H88.9205V30H87.858ZM92.9886 24.75L95.8523 30H94.625L91.7898 24.75H92.9886ZM101.176 30.1818C100.362 30.1818 99.6572 29.9925 99.0625 29.6137C98.4678 29.2311 98.0076 28.7027 97.6818 28.0284C97.3598 27.3504 97.1989 26.5701 97.1989 25.6875C97.1989 24.8087 97.3598 24.0284 97.6818 23.3466C98.0076 22.661 98.4564 22.125 99.0284 21.7387C99.6042 21.3485 100.269 21.1534 101.023 21.1534C101.496 21.1534 101.953 21.2406 102.392 21.4148C102.831 21.5853 103.225 21.8485 103.574 22.2046C103.926 22.5568 104.205 23.0019 104.409 23.5398C104.614 24.0739 104.716 24.7065 104.716 25.4375V25.9375H97.8977V25.0455H103.682C103.682 24.4849 103.568 23.9811 103.341 23.5341C103.117 23.0834 102.805 22.7273 102.403 22.4659C102.006 22.2046 101.545 22.0739 101.023 22.0739C100.47 22.0739 99.983 22.2216 99.5625 22.5171C99.142 22.8125 98.8125 23.2027 98.5739 23.6875C98.339 24.1724 98.2197 24.7027 98.2159 25.2784V25.8125C98.2159 26.5057 98.3352 27.1118 98.5739 27.6307C98.8163 28.1459 99.1591 28.5455 99.6023 28.8296C100.045 29.1137 100.57 29.2557 101.176 29.2557C101.589 29.2557 101.951 29.1913 102.261 29.0625C102.576 28.9337 102.839 28.7614 103.051 28.5455C103.267 28.3258 103.43 28.0853 103.54 27.8239L104.5 28.1364C104.367 28.5038 104.15 28.8428 103.847 29.1534C103.547 29.464 103.172 29.714 102.722 29.9034C102.275 30.089 101.759 30.1818 101.176 30.1818ZM106.945 30V21.2728H107.928V22.6137H108.018C108.193 22.1629 108.482 21.8087 108.888 21.5512C109.297 21.2898 109.787 21.1591 110.359 21.1591C110.962 21.1591 111.456 21.3012 111.842 21.5853C112.232 21.8656 112.524 22.2519 112.717 22.7443H112.791C112.988 22.2595 113.308 21.875 113.751 21.5909C114.198 21.3031 114.74 21.1591 115.376 21.1591C116.187 21.1591 116.827 21.4148 117.297 21.9262C117.767 22.4337 118.001 23.1762 118.001 24.1534V30H116.99V24.1534C116.99 23.464 116.814 22.947 116.462 22.6023C116.109 22.2576 115.645 22.0853 115.07 22.0853C114.403 22.0853 113.89 22.2898 113.53 22.6989C113.17 23.108 112.99 23.6269 112.99 24.2557V30H111.956V24.0625C111.956 23.4716 111.791 22.9943 111.462 22.6307C111.132 22.2671 110.668 22.0853 110.07 22.0853C109.668 22.0853 109.306 22.1837 108.984 22.3807C108.666 22.5777 108.414 22.8523 108.229 23.2046C108.047 23.5531 107.956 23.9546 107.956 24.4091V30H106.945ZM120.69 30V21.2728H121.707V30H120.69ZM121.207 19.7728C120.999 19.7728 120.821 19.7027 120.673 19.5625C120.526 19.4186 120.452 19.2462 120.452 19.0455C120.452 18.8447 120.526 18.6743 120.673 18.5341C120.821 18.3902 120.999 18.3182 121.207 18.3182C121.416 18.3182 121.594 18.3902 121.741 18.5341C121.889 18.6743 121.963 18.8447 121.963 19.0455C121.963 19.2462 121.889 19.4186 121.741 19.5625C121.594 19.7027 121.416 19.7728 121.207 19.7728ZM125.393 24.5455V30H124.382V21.2728H125.365V22.6421H125.456C125.661 22.1951 125.979 21.8372 126.411 21.5682C126.846 21.2955 127.384 21.1591 128.024 21.1591C128.611 21.1591 129.126 21.2822 129.57 21.5284C130.017 21.7709 130.363 22.1288 130.609 22.6023C130.859 23.0758 130.984 23.6572 130.984 24.3466V30H129.973V24.4091C129.973 23.6932 129.772 23.1269 129.371 22.7103C128.973 22.2936 128.439 22.0853 127.768 22.0853C127.31 22.0853 126.903 22.1837 126.547 22.3807C126.191 22.5777 125.909 22.8618 125.7 23.233C125.496 23.6004 125.393 24.0379 125.393 24.5455ZM136.79 30.1818C136.074 30.1818 135.447 29.9925 134.909 29.6137C134.371 29.2349 133.951 28.7065 133.648 28.0284C133.348 27.3504 133.199 26.5606 133.199 25.6591C133.199 24.7614 133.348 23.9754 133.648 23.3012C133.951 22.6231 134.373 22.0966 134.915 21.7216C135.456 21.3428 136.087 21.1534 136.807 21.1534C137.337 21.1534 137.778 21.2481 138.131 21.4375C138.483 21.6231 138.765 21.8542 138.977 22.1307C139.189 22.4072 139.354 22.6762 139.472 22.9375H139.562V18.3637H140.58V30H139.591V28.3807H139.472C139.354 28.6459 139.188 28.9186 138.972 29.1989C138.756 29.4754 138.47 29.7084 138.114 29.8978C137.761 30.0872 137.32 30.1818 136.79 30.1818ZM136.909 29.2557C137.473 29.2557 137.955 29.1023 138.352 28.7955C138.75 28.4849 139.053 28.0587 139.261 27.5171C139.473 26.9716 139.58 26.3466 139.58 25.6421C139.58 24.9451 139.475 24.3296 139.267 23.7955C139.059 23.2576 138.756 22.8372 138.358 22.5341C137.96 22.2273 137.477 22.0739 136.909 22.0739C136.326 22.0739 135.833 22.233 135.432 22.5512C135.034 22.8656 134.731 23.2917 134.523 23.8296C134.318 24.3675 134.216 24.9716 134.216 25.6421C134.216 26.3201 134.32 26.9318 134.528 27.4773C134.737 28.0228 135.04 28.4565 135.438 28.7784C135.839 29.0966 136.33 29.2557 136.909 29.2557ZM146.989 30.1818C146.174 30.1818 145.47 29.9925 144.875 29.6137C144.28 29.2311 143.82 28.7027 143.494 28.0284C143.172 27.3504 143.011 26.5701 143.011 25.6875C143.011 24.8087 143.172 24.0284 143.494 23.3466C143.82 22.661 144.269 22.125 144.841 21.7387C145.417 21.3485 146.081 21.1534 146.835 21.1534C147.309 21.1534 147.765 21.2406 148.205 21.4148C148.644 21.5853 149.038 21.8485 149.386 22.2046C149.739 22.5568 150.017 23.0019 150.222 23.5398C150.426 24.0739 150.528 24.7065 150.528 25.4375V25.9375H143.71V25.0455H149.494C149.494 24.4849 149.381 23.9811 149.153 23.5341C148.93 23.0834 148.617 22.7273 148.216 22.4659C147.818 22.2046 147.358 22.0739 146.835 22.0739C146.282 22.0739 145.795 22.2216 145.375 22.5171C144.955 22.8125 144.625 23.2027 144.386 23.6875C144.152 24.1724 144.032 24.7027 144.028 25.2784V25.8125C144.028 26.5057 144.148 27.1118 144.386 27.6307C144.629 28.1459 144.972 28.5455 145.415 28.8296C145.858 29.1137 146.383 29.2557 146.989 29.2557C147.402 29.2557 147.763 29.1913 148.074 29.0625C148.388 28.9337 148.652 28.7614 148.864 28.5455C149.08 28.3258 149.242 28.0853 149.352 27.8239L150.312 28.1364C150.18 28.5038 149.962 28.8428 149.659 29.1534C149.36 29.464 148.985 29.714 148.534 29.9034C148.087 30.089 147.572 30.1818 146.989 30.1818ZM152.757 30V21.2728H153.74V22.6137H153.814C153.988 22.1743 154.291 21.8201 154.723 21.5512C155.159 21.2784 155.651 21.1421 156.2 21.1421C156.284 21.1421 156.376 21.144 156.479 21.1478C156.581 21.1515 156.666 21.1553 156.734 21.1591V22.1875C156.689 22.18 156.609 22.1686 156.496 22.1534C156.382 22.1383 156.259 22.1307 156.126 22.1307C155.672 22.1307 155.267 22.2273 154.911 22.4205C154.558 22.6099 154.28 22.8731 154.075 23.2103C153.871 23.5474 153.768 23.9318 153.768 24.3637V30H152.757Z" fill="black"/>
<path d="M37.9578 30.525V22.1175C37.9563 19.8797 37.2008 17.7077 35.8132 15.952C34.4256 14.1964 32.4869 12.9595 30.31 12.441V11.7022C30.31 11.0852 30.0649 10.4935 29.6286 10.0572C29.1923 9.62086 28.6005 9.37575 27.9835 9.37575C27.3665 9.37575 26.7747 9.62086 26.3384 10.0572C25.9021 10.4935 25.657 11.0852 25.657 11.7022V12.45C23.4877 12.9744 21.5575 14.2126 20.1765 15.9659C18.7955 17.7191 18.0439 19.8857 18.0423 22.1175V30.525L14.8878 33.6795V35.1367H41.1123V33.6795L37.9578 30.525Z" stroke="black" stroke-linecap="round" stroke-linejoin="round"/>
<path d="M24.4945 35.1367C24.4877 35.5992 24.573 36.0584 24.7452 36.4876C24.9175 36.9168 25.1734 37.3074 25.498 37.6368C25.8226 37.9663 26.2095 38.2279 26.6362 38.4064C27.0628 38.585 27.5207 38.6769 27.9831 38.6769C28.4456 38.6769 28.9035 38.585 29.3301 38.4064C29.7568 38.2279 30.1436 37.9663 30.4683 37.6368C30.7929 37.3074 31.0488 36.9168 31.221 36.4876C31.3933 36.0584 31.4785 35.5992 31.4718 35.1367" stroke="black" stroke-linecap="round" stroke-linejoin="round"/>
</svg>
